<svg viewBox="0 0 32 32" xmlns="http://www.w3.org/2000/svg"><path d="M11.398 12.812a.5.5 0 0 0-.132.025A7.49 7.49 0 0 0 6 19.999c0 4.146 3.354 7.5 7.5 7.5h.25a.5.5 0 1 0 0-1h-.25A6.473 6.473 0 0 1 7 20c0-1.805.723-3.425 1.898-4.6a6.491 6.491 0 0 1 2.665-1.607.5.5 0 0 0-.165-.98zm9.188 0a.5.5 0 0 0-.148.98 6.433 6.433 0 0 1 2.664 1.607A6.469 6.469 0 0 1 25 20c0 3.61-2.89 6.5-6.5 6.5h-1.25a.5.5 0 1 0 0 1h1.25c4.146 0 7.5-3.354 7.5-7.5a7.48 7.48 0 0 0-5.266-7.162.5.5 0 0 0-.148-.025z"/><path d="M3.977 17.501a.5.5 0 0 0-.229.932l2.488 1.492a.5.5 0 1 0 .516-.858l-2.488-1.492a.5.5 0 0 0-.287-.074zM23.5 24.5a.5.5 0 0 0-.348.858l2.489 2.49a.5.5 0 1 0 .707-.706l-2.489-2.49a.5.5 0 0 0-.359-.153zm1.94-17.74l-.88.48 1.24 2.27a4.651 4.651 0 0 1-.65 5.368l-.974 1.068.738.674.975-1.068a5.657 5.657 0 0 0 .789-6.52z" fill-rule="evenodd"/><path d="M22.357 3.5A2.365 2.365 0 0 0 20 5.86v.28c0 1.299 1.06 2.36 2.357 2.36h1.286A2.364 2.364 0 0 0 26 6.14v-.28a2.365 2.365 0 0 0-2.357-2.36zm0 1h1.286c.76 0 1.357.597 1.357 1.36v.28c0 .763-.597 1.36-1.357 1.36h-1.286C21.597 7.5 21 6.902 21 6.14v-.28c0-.763.597-1.36 1.357-1.36z"/><path d="M6.56 6.76L5.323 9.033a5.657 5.657 0 0 0 .79 6.52l.974 1.068.738-.674-.974-1.068a4.651 4.651 0 0 1-.65-5.367l1.24-2.272zm1.924 17.741a.5.5 0 0 0-.343.15l-2.489 2.49a.5.5 0 1 0 .707.708l2.489-2.49a.5.5 0 0 0-.364-.858z" fill-rule="evenodd"/><path d="M19 10.5c-1.099 0-2 .9-2 2 0 1.098.901 2 2 2s2-.902 2-2c0-1.1-.901-2-2-2zm0 1c.558 0 1 .44 1 1s-.442 1-1 1-1-.443-1-1 .442-1 1-1zm-6-1c-1.099 0-2 .9-2 2 0 1.098.901 2 2 2s2-.902 2-2c0-1.1-.901-2-2-2zm0 1c.558 0 1 .44 1 1s-.442 1-1 1-1-.443-1-1 .442-1 1-1zm-4.643-8A2.365 2.365 0 0 0 6 5.86v.28C6 7.439 7.06 8.5 8.357 8.5h1.286A2.364 2.364 0 0 0 12 6.14v-.28A2.365 2.365 0 0 0 9.643 3.5zm0 1h1.286c.76 0 1.357.597 1.357 1.36v.28c0 .763-.597 1.36-1.357 1.36H8.357C7.597 7.5 7 6.902 7 6.14v-.28c0-.763.597-1.36 1.357-1.36z"/><path d="M20.5 5.5v1H22v-1zM10 5.5v1h1.5v-1zm4.5 7v1h3v-1zm13.508 5a.5.5 0 0 0-.272.075l-2.488 1.492a.5.5 0 1 0 .516.858l2.488-1.493a.5.5 0 0 0-.244-.933z" fill-rule="evenodd"/></svg>