<svg height="200" width="400" xmlns="http://www.w3.org/2000/svg"><g fill="#c4af27"><path d="M177.91 44.583a2.4 2.394 0 0 0-.633.12 35.943 35.855 0 0 0-25.273 34.295c0 19.85 16.097 35.908 35.995 35.908h23.997c19.898 0 35.996-16.058 35.996-35.908a35.9 35.812 0 0 0-25.274-34.295 2.4 2.394 0 0 0-1.425 4.572 31.148 31.072 0 0 1 21.9 29.723c0 17.283-13.871 31.12-31.197 31.12H188c-17.326 0-31.196-13.837-31.196-31.12 0-8.642 3.47-16.398 9.11-22.024a31.148 31.072 0 0 1 12.79-7.694 2.4 2.394 0 0 0-.792-4.692z"/><path d="M142.295 67.033a2.4 2.394 0 0 0-1.1 4.462l11.941 7.144a2.403 2.397 0 1 0 2.477-4.108l-11.94-7.144a2.4 2.394 0 0 0-1.378-.354zm93.698 33.51a2.4 2.394 0 0 0-1.67 4.107l11.946 11.922a2.4 2.394 0 1 0 3.393-3.38l-11.946-11.922a2.4 2.394 0 0 0-1.723-.732zm9.311-84.935l-4.224 2.298 5.952 10.868a22.322 22.268 0 0 1-3.12 25.7l-4.675 5.114 3.542 3.227 4.68-5.113a27.15 27.084 0 0 0 3.787-31.216l-5.947-10.873z" fill-rule="evenodd"/><path d="M230.507 0a11.35 11.323 0 0 0-11.312 11.3v1.34c0 6.219 5.088 11.299 11.312 11.299h6.172a11.346 11.318 0 0 0 11.313-11.3V11.3A11.35 11.323 0 0 0 236.679 0zm0 4.788h6.172c3.648 0 6.513 2.853 6.513 6.511v1.34c0 3.654-2.865 6.512-6.513 6.512h-6.172c-3.647 0-6.512-2.863-6.512-6.511V11.3c0-3.654 2.865-6.512 6.512-6.512z"/><path d="M154.691 15.608l-5.936 10.883a27.15 27.084 0 0 0 3.791 31.216l4.675 5.113 3.542-3.227-4.675-5.113a22.322 22.268 0 0 1-3.12-25.696l5.952-10.878-4.224-2.288zm9.234 84.939a2.4 2.394 0 0 0-1.646.718l-11.945 11.922a2.401 2.395 0 1 0 3.393 3.39l11.945-11.922a2.4 2.394 0 0 0-1.747-4.112z" fill-rule="evenodd"/><path d="M214.396 33.514c-5.275 0-9.599 4.31-9.599 9.576 0 5.257 4.324 9.575 9.599 9.575s9.599-4.318 9.599-9.575c0-5.267-4.325-9.576-9.6-9.576zm0 4.788c2.678 0 4.8 2.107 4.8 4.788 0 2.666-2.122 4.787-4.8 4.787s-4.8-2.12-4.8-4.787c0-2.681 2.122-4.788 4.8-4.788zM185.6 33.514c-5.275 0-9.6 4.31-9.6 9.576 0 5.257 4.325 9.575 9.6 9.575s9.598-4.318 9.598-9.575c0-5.267-4.324-9.576-9.598-9.576zm0 4.788c2.678 0 4.799 2.107 4.799 4.788 0 2.666-2.121 4.787-4.8 4.787s-4.799-2.12-4.799-4.787c0-2.681 2.121-4.788 4.8-4.788zM163.316 0a11.35 11.323 0 0 0-11.312 11.3v1.34c0 6.219 5.087 11.299 11.312 11.299h6.172a11.346 11.318 0 0 0 11.312-11.3V11.3A11.35 11.323 0 0 0 169.488 0zm0 4.788h6.172c3.648 0 6.513 2.853 6.513 6.511v1.34c0 3.654-2.865 6.512-6.513 6.512h-6.172c-3.648 0-6.513-2.863-6.513-6.511V11.3c0-3.654 2.865-6.512 6.513-6.512z"/><path d="M221.595 9.575v4.788h7.199V9.575zm-50.394 0v4.788h7.2V9.575zM192.8 43.09v4.787h14.398V43.09z" fill-rule="evenodd"/><g stroke-linecap="round" stroke-linejoin="round"><path d="M257.629 67.028a2.4 2.394 0 0 0-1.306.36l-11.94 7.143a2.403 2.397 0 1 0 2.476 4.108l11.94-7.148a2.4 2.394 0 0 0-1.17-4.467z" fill-rule="evenodd"/><path d="M219.195 57.439a2.4 2.394 0 0 0-.926 4.61 21.583 21.53 0 0 1 13.189 19.898 2.4 2.394 0 1 0 4.8 0 26.392 26.328 0 0 0-16.136-24.303 2.4 2.394 0 0 0-.927-.205z"/></g><path d="M9.55 197.204c3.064 1.864 6.704 2.796 10.92 2.796 6.431 0 11.646-2.06 15.645-6.178l-1.37-2.276c-2.26 2.081-4.508 3.566-6.746 4.455s-4.77 1.333-7.595 1.333c-5.563 0-9.876-1.821-12.94-5.463s-4.596-8.757-4.596-15.347c0-6.547 1.532-11.64 4.596-15.282s7.377-5.463 12.94-5.463c2.825 0 5.357.444 7.595 1.333s4.487 2.374 6.747 4.455l1.369-2.276c-3.999-4.119-9.214-6.178-15.646-6.178-4.215 0-7.855.932-10.919 2.796s-5.421 4.552-7.073 8.064S0 171.668 0 176.523s.826 9.051 2.477 12.584 4.01 6.232 7.073 8.097zm70.633 2.276l-8.345-15.738c-.782-1.387-1.597-2.493-2.444-3.316s-1.815-1.41-2.901-1.756c3.868-.434 6.856-1.713 8.963-3.837s3.162-4.964 3.162-8.519c0-4.162-1.293-7.316-3.879-9.462s-6.247-3.219-10.984-3.219H46.023v45.847h2.673v-20.29h10.626c2.651 0 4.715.39 6.193 1.17s2.781 2.255 3.911 4.423l7.758 14.697zM63.82 176.589H48.761v-20.42h15.06c4.04 0 7.04.835 8.995 2.504s2.934 4.194 2.934 7.576c0 6.893-3.977 10.34-11.93 10.34zm61.278 22.89h2.868l-19.752-45.846h-2.608L85.854 199.48h2.803l5.476-12.681h25.489zm-29.858-15.28l11.669-27.053 11.604 27.053zm71.545-4.325c-1.456-1.93-3.51-3.22-6.16-3.87 2.303-.866 4.096-2.178 5.378-3.934s1.923-3.89 1.923-6.405c0-3.902-1.26-6.883-3.781-8.942s-6.106-3.089-10.756-3.089h-16.95v45.847h17.667c4.78 0 8.453-1.052 11.017-3.154s3.846-5.192 3.846-9.267c0-2.861-.728-5.257-2.184-7.186zm-27.607-4.975V156.17h13.885c7.996 0 11.995 3.035 11.995 9.105 0 3.121-1.022 5.505-3.064 7.153s-5.02 2.471-8.931 2.471zm23.957 19.704c-1.978 1.561-5.01 2.342-9.094 2.342h-14.863V177.5h14.863c3.998 0 7.008.835 9.028 2.504s3.032 4.13 3.032 7.381-.989 5.658-2.966 7.218zm16.655 4.878h27.119v-2.471h-24.446v-43.376h-2.673zm39.668-2.309c3.02 1.886 6.573 2.829 10.658 2.829 4.129 0 7.704-.943 10.724-2.829s5.345-4.595 6.975-8.129 2.445-7.706 2.445-12.518-.804-8.974-2.412-12.486-3.933-6.21-6.975-8.096-6.628-2.83-10.757-2.83-7.703.944-10.723 2.83-5.335 4.595-6.943 8.128-2.412 7.707-2.412 12.519c0 4.769.815 8.92 2.445 12.453s3.955 6.243 6.975 8.13zm23.37-5.3c-2.998 3.642-7.236 5.463-12.712 5.463-5.432 0-9.648-1.821-12.646-5.463s-4.498-8.757-4.498-15.347 1.499-11.695 4.498-15.315 7.214-5.43 12.646-5.43c5.52 0 9.768 1.81 12.745 5.43s4.465 8.725 4.465 15.315-1.5 11.705-4.498 15.347zm52.738-15.477h-15.254v2.601h12.712v16.063c-1.739.737-3.738 1.311-5.998 1.723s-4.585.618-6.975.618c-5.823 0-10.31-1.8-13.461-5.398s-4.727-8.757-4.727-15.477c0-6.59 1.554-11.695 4.661-15.315s7.465-5.43 13.07-5.43c2.826 0 5.357.455 7.595 1.366s4.466 2.406 6.682 4.487l1.37-2.341c-3.956-4.119-9.106-6.178-15.45-6.178-4.303 0-8.008.921-11.115 2.764s-5.498 4.52-7.171 8.03-2.51 7.718-2.51 12.617.837 9.104 2.51 12.616 4.085 6.2 7.236 8.064c3.15 1.864 6.92 2.796 11.31 2.796 2.955 0 5.878-.293 8.768-.878s5.14-1.333 6.747-2.243zm10.365 18.534v4.552h4.498v-4.552zm49.61 4.552l-8.345-15.738c-.782-1.387-1.597-2.493-2.445-3.316s-1.814-1.41-2.9-1.756c3.867-.434 6.855-1.713 8.963-3.837s3.162-4.964 3.162-8.519c0-4.162-1.293-7.316-3.88-9.462s-6.247-3.219-10.984-3.219h-17.731v45.847h2.673v-20.29h10.626c2.65 0 4.715.39 6.193 1.17s2.78 2.255 3.91 4.423l7.758 14.697zm-16.363-22.891h-15.06v-20.42h15.06c4.041 0 7.04.835 8.996 2.504s2.933 4.194 2.933 7.576c0 6.893-3.976 10.34-11.93 10.34zm30.41 18.891c2.934 3.013 7.269 4.52 13.006 4.52 5.693 0 10.017-1.507 12.972-4.52S400 188.013 400 182.117v-28.484h-2.738v28.939c0 4.899-1.239 8.584-3.716 11.055s-6.127 3.707-10.951 3.707c-9.822 0-14.733-4.92-14.733-14.762v-28.939h-2.673v28.484c0 5.896 1.467 10.35 4.4 13.363z"/></g></svg>