<?xml version="1.0" encoding="UTF-8" standalone="no"?><svg width="72" height="64" viewBox="0 0 72 64" xmlns="http://www.w3.org/2000/svg" xmlns:xlink="http://www.w3.org/1999/xlink"><svg viewBox="-2 -2 44 44" width="44" height="44" id="arrow-up" xmlns="http://www.w3.org/2000/svg"><path d="M29.378 40c.328 0 .653-.135.884-.366.232-.232.367-.557.367-.884V21.249h8.128c.49 0 .965-.32 1.153-.772a1.281 1.281 0 0 0-.27-1.36L20.883.364A1.266 1.265 0 0 0 20 0a1.265 1.265 0 0 0-.883.365L.36 19.116a1.281 1.281 0 0 0-.27 1.36c.188.454.663.772 1.153.773h8.128v17.5c0 .328.135.653.367.885.231.231.556.366.884.366z" fill="#fff"/></svg><svg viewBox="-2 -2 20 20" width="20" height="20" id="date" y="44" xmlns="http://www.w3.org/2000/svg"><path d="M.276 4.339h15.448v11.39H.276z" fill="#a7afc6"/><path d="M11.586 1.356H0v2.712h16V1.356z" fill="#424a60"/><ellipse cx="5.517" cy="2.441" rx=".552" ry=".542" fill="#262b38"/><ellipse cx="7.172" cy="2.441" rx=".552" ry=".542" fill="#262b38"/><ellipse cx="8.828" cy="2.441" rx=".552" ry=".542" fill="#262b38"/><ellipse cx="10.483" cy="2.441" rx=".552" ry=".542" fill="#262b38"/><path d="M10.483 0c-.312 0-.597.106-.828.278.147.11.27.247.363.405a.822.808 0 0 1 .465-.14c.456 0 .827.364.827.813a.822.822 0 0 1-.827.813.276.271 0 1 0 0 .543c.76 0 1.38-.608 1.38-1.356A1.37 1.37 0 0 0 10.482 0z" fill="#afb6bb"/><path d="M9.292.683a1.362 1.339 0 0 0-.189.673h.552a.81.81 0 0 0-.363-.673zm-1.655 0a1.362 1.339 0 0 0-.189.673H8a.81.81 0 0 0-.363-.673z" fill="#839594"/><path d="M10.018.683a1.387 1.363 0 0 0-.363-.405A1.382 1.382 0 0 0 8.828 0C8.516 0 8.23.106 8 .278c.147.11.27.247.363.405a.833.833 0 0 1 .93 0 .827.813 0 0 1-.465 1.486.276.271 0 1 0 0 .543c.76 0 1.379-.608 1.379-1.356 0-.246-.072-.474-.19-.673z" fill="#afb6bb"/><path d="M5.982.683a1.362 1.339 0 0 0-.189.673h.552a.81.81 0 0 0-.363-.673z" fill="#839594"/><path d="M8.363.683A1.387 1.363 0 0 0 8 .278 1.382 1.382 0 0 0 7.172 0c-.311 0-.596.106-.827.278.147.11.27.247.363.405a.833.833 0 0 1 .93 0 .827.813 0 0 1-.466 1.486.276.271 0 1 0 0 .543c.761 0 1.38-.608 1.38-1.356 0-.246-.072-.474-.19-.673z" fill="#afb6bb"/><path d="M6.708.683a1.387 1.363 0 0 0-.363-.405A1.367 1.343 0 0 0 5.517 0c-.76 0-1.38.608-1.38 1.356h.553c0-.449.371-.814.827-.814a.822.808 0 0 1 .465.141.827.813 0 0 1-.465 1.486.276.271 0 1 0 0 .543c.76 0 1.38-.608 1.38-1.356 0-.246-.072-.474-.19-.673z" fill="#afb6bb"/><path stroke-miterlimit="10" d="M8 8.136h3.862v3.796H8z" fill="none" stroke="#1081e0" stroke-width=".547" stroke-linecap="round"/><path d="M12.138 4.068H0V16h16V4.068zm-3.862.542h3.31v3.254h-3.31zm3.31 7.051h-3.31V8.407h3.31zM4.414 8.407h3.31v3.254h-3.31zm0-3.797h3.31v3.254h-3.31zm-3.862 0h3.31v3.254H.552zm0 3.797h3.31v3.254H.552zm3.31 7.05H.552v-3.254h3.31zm3.862 0h-3.31v-3.254h3.31zm3.862 0h-3.31v-3.254h3.31zm3.862 0h-3.31v-3.254h3.31zm0-3.796h-3.31V8.407h3.31zm-3.31-3.797V4.61h3.31v3.254z" fill="#556080"/><path d="M8.276 8.407h3.31v3.254h-3.31z" fill="#ebba16"/><path d="M10.321 10.034l.909-.893a.276.271 0 1 0-.39-.384l-.909.893-.908-.893a.276.271 0 1 0-.39.384l.908.893-.908.893a.276.271 0 1 0 .39.383l.908-.893.908.893a.275.27 0 0 0 .39 0 .276.27 0 0 0 0-.383z" fill="#efce4a"/></svg><svg viewBox="-2 -2 28 28" fill="#fff" width="28" height="28" id="search" x="44" xmlns="http://www.w3.org/2000/svg"><path d="M15.5 14h-.79l-.28-.27A6.471 6.471 0 0 0 16 9.5 6.5 6.5 0 1 0 9.5 16c1.61 0 3.09-.59 4.23-1.57l.27.28v.79l5 4.99L20.49 19l-4.99-5zm-6 0C7.01 14 5 11.99 5 9.5S7.01 5 9.5 5 14 7.01 14 9.5 11.99 14 9.5 14z"/></svg></svg>