<?xml version="1.0" encoding="UTF-8" standalone="no"?>
<svg
   xmlns:dc="http://purl.org/dc/elements/1.1/"
   xmlns:cc="http://creativecommons.org/ns#"
   xmlns:rdf="http://www.w3.org/1999/02/22-rdf-syntax-ns#"
   xmlns:svg="http://www.w3.org/2000/svg"
   xmlns="http://www.w3.org/2000/svg"
   xmlns:sodipodi="http://sodipodi.sourceforge.net/DTD/sodipodi-0.dtd"
   xmlns:inkscape="http://www.inkscape.org/namespaces/inkscape"
   viewBox="0 0 16 16"
   version="1.1"
   id="svg34"
   sodipodi:docname="date2.svg"
   width="16"
   height="16"
   inkscape:version="0.92.2 5c3e80d, 2017-08-06">
  <metadata
     id="metadata40">
    <rdf:RDF>
      <cc:Work
         rdf:about="">
        <dc:format>image/svg+xml</dc:format>
        <dc:type
           rdf:resource="http://purl.org/dc/dcmitype/StillImage" />
        <dc:title></dc:title>
      </cc:Work>
    </rdf:RDF>
  </metadata>
  <defs
     id="defs38" />
  <sodipodi:namedview
     pagecolor="#ffffff"
     bordercolor="#666666"
     borderopacity="1"
     objecttolerance="10"
     gridtolerance="10"
     guidetolerance="10"
     inkscape:pageopacity="0"
     inkscape:pageshadow="2"
     inkscape:window-width="1153"
     inkscape:window-height="689"
     id="namedview36"
     showgrid="false"
     units="px"
     width="16"
     inkscape:zoom="1"
     inkscape:cx="69.5"
     inkscape:cy="69.5"
     inkscape:window-x="0"
     inkscape:window-y="0"
     inkscape:window-maximized="0"
     inkscape:current-layer="svg34" />
  <path
     d="M 0.27586207,4.33898 H 15.724138 V 15.72881 H 0.27586207 Z"
     id="path2"
     inkscape:connector-curvature="0"
     style="fill:#a7afc6;stroke-width:0.27351427" />
  <path
     d="M 11.586207,1.35593 H 4.4137931 0 V 4.0678 H 16 V 1.35593 Z"
     id="path4"
     inkscape:connector-curvature="0"
     style="fill:#424a60;stroke-width:0.27351427" />
  <ellipse
     cx="5.5172415"
     cy="2.4406738"
     id="circle6"
     rx="0.55172414"
     ry="0.54237288"
     style="fill:#262b38;stroke-width:0.27351427" />
  <ellipse
     cx="7.1724138"
     cy="2.4406738"
     id="circle8"
     rx="0.55172414"
     ry="0.54237288"
     style="fill:#262b38;stroke-width:0.27351427" />
  <ellipse
     cx="8.8275862"
     cy="2.4406738"
     id="circle10"
     rx="0.55172414"
     ry="0.54237288"
     style="fill:#262b38;stroke-width:0.27351427" />
  <ellipse
     cx="10.482759"
     cy="2.4406738"
     id="circle12"
     rx="0.55172414"
     ry="0.54237288"
     style="fill:#262b38;stroke-width:0.27351427" />
  <path
     d="M 10.482758,0 C 10.171034,0 9.886345,0.10603 9.655173,0.27797 9.802482,0.3878 9.925242,0.52529 10.017931,0.68339 a 0.82206896,0.80813564 0 0 1 0.464827,-0.14102 c 0.456276,0 0.827587,0.36502 0.827587,0.81356 0,0.44854 -0.371311,0.81356 -0.827587,0.81356 a 0.27586264,0.271187 0 1 0 0,0.54237 c 0.760552,0 1.379311,-0.60827 1.379311,-1.35593 C 11.862069,0.60827 11.24331,0 10.482758,0 Z"
     id="path14"
     inkscape:connector-curvature="0"
     style="fill:#afb6bb;stroke-width:0.27351427" />
  <path
     d="M 9.2924136,0.68339 A 1.3616552,1.3385762 0 0 0 9.103448,1.35593 h 0.551725 c 0,-0.27932 -0.144,-0.52583 -0.3627594,-0.67254 z m -1.655172,0 A 1.3616552,1.3385762 0 0 0 7.4482758,1.35593 H 8 C 8,1.07661 7.856,0.8301 7.6372416,0.68339 Z"
     id="path16"
     inkscape:connector-curvature="0"
     style="fill:#839594;stroke-width:0.27351427" />
  <path
     d="M 10.017931,0.68339 A 1.3867586,1.3632543 0 0 0 9.655173,0.27797 C 9.424,0.10603 9.1393104,0 8.8275864,0 8.5158624,0 8.2311728,0.10603 8,0.27797 8.1473104,0.3878 8.2700688,0.52529 8.3627584,0.68339 8.495448,0.59449 8.655448,0.54237 8.8275864,0.54237 c 0.1721376,0 0.3321376,0.0521 0.4648272,0.14102 a 0.82731032,0.81328812 0 0 1 -0.4648272,1.4861 0.27586264,0.271187 0 1 0 0,0.54237 c 0.7605516,0 1.3793106,-0.60827 1.3793106,-1.35593 0,-0.24596 -0.072,-0.47349 -0.188966,-0.67254 z"
     id="path18"
     inkscape:connector-curvature="0"
     style="fill:#afb6bb;stroke-width:0.27351427" />
  <path
     d="M 5.982069,0.68339 A 1.3616552,1.3385762 0 0 0 5.7931034,1.35593 h 0.5517242 c 0,-0.27932 -0.144,-0.52583 -0.3627586,-0.67254 z"
     id="path20"
     inkscape:connector-curvature="0"
     style="fill:#839594;stroke-width:0.27351427" />
  <path
     d="M 8.3627584,0.68339 A 1.3867586,1.3632543 0 0 0 8,0.27797 C 7.7688272,0.10603 7.4841379,0 7.1724138,0 6.8606897,0 6.576,0.10603 6.3448276,0.27797 6.4921379,0.3878 6.6148966,0.52529 6.7075862,0.68339 6.8402758,0.59449 7.0002758,0.54237 7.1724138,0.54237 c 0.172138,0 0.332138,0.0521 0.4648278,0.14102 a 0.82731032,0.81328812 0 0 1 -0.4648278,1.4861 0.27586264,0.271187 0 1 0 0,0.54237 c 0.7605518,0 1.3793102,-0.60827 1.3793102,-1.35593 0,-0.24596 -0.072,-0.47349 -0.1889656,-0.67254 z"
     id="path22"
     inkscape:connector-curvature="0"
     style="fill:#afb6bb;stroke-width:0.27351427" />
  <path
     d="M 6.7075862,0.68339 A 1.3867586,1.3632543 0 0 0 6.3448276,0.27797 1.3666207,1.3434576 0 0 0 5.5172414,0 C 4.7566897,0 4.137931,0.60827 4.137931,1.35593 h 0.5517242 c 0,-0.44854 0.3713103,-0.81356 0.8275862,-0.81356 a 0.82206896,0.80813564 0 0 1 0.4648276,0.14102 0.82731032,0.81328812 0 0 1 -0.4648276,1.4861 0.27586569,0.27119 0 1 0 0,0.54238 c 0.7605517,0 1.3793104,-0.60828 1.3793104,-1.35594 0,-0.24596 -0.072,-0.47349 -0.1889656,-0.67254 z"
     id="path24"
     inkscape:connector-curvature="0"
     style="fill:#afb6bb;stroke-width:0.27351427" />
  <path
     stroke-miterlimit="10"
     d="m 8,8.13559 h 3.862069 V 11.9322 H 8 Z"
     id="path26"
     inkscape:connector-curvature="0"
     style="fill:none;stroke:#1081e0;stroke-width:0.54702854;stroke-linecap:round;stroke-miterlimit:10" />
  <path
     d="M 12.137931,4.0678 H 0 V 16 H 16 V 4.0678 Z M 8.2758624,4.61017 H 11.586207 V 7.86441 H 8.2758624 Z m 3.3103446,7.05085 H 8.2758624 V 8.40678 H 11.586207 Z M 4.4137931,8.40678 h 3.3103445 v 3.25424 H 4.4137931 Z m 0,-3.79661 H 7.7241376 V 7.86441 H 4.4137931 Z m -3.8620689,0 H 3.862069 V 7.86441 H 0.5517242 Z m 0,3.79661 H 3.862069 v 3.25424 H 0.5517242 Z M 3.862069,15.45763 H 0.5517242 V 12.20339 H 3.862069 Z m 3.8620686,0 H 4.4137931 v -3.25424 h 3.3103445 z m 3.8620694,0 H 8.2758624 v -3.25424 h 3.3103446 z m 3.862069,0 h -3.310345 v -3.25424 h 3.310345 z m 0,-3.79661 H 12.137931 V 8.40678 h 3.310345 z M 12.137931,7.86441 V 4.61017 h 3.310345 v 3.25424 z"
     id="path28"
     inkscape:connector-curvature="0"
     style="fill:#556080;stroke-width:0.27351427" />
  <path
     d="m 8.2758624,8.40678 h 3.3103446 v 3.25424 H 8.2758624 Z"
     id="path30"
     inkscape:connector-curvature="0"
     style="fill:#ebba16;stroke-width:0.27351427" />
  <path
     d="M 10.321103,10.0339 11.229518,9.14088 A 0.27582163,0.27114669 0 1 0 10.839448,8.75742 L 9.931034,9.65044 9.0226208,8.75742 A 0.2758212,0.27114627 0 1 0 8.632552,9.14088 l 0.908414,0.89302 -0.908414,0.89302 a 0.27582049,0.27114556 0 1 0 0.3900688,0.38345 l 0.9084132,-0.89301 0.908414,0.89301 a 0.27503448,0.27037288 0 0 0 0.39007,0 0.27558621,0.27091526 0 0 0 0,-0.38345 z"
     id="path32"
     inkscape:connector-curvature="0"
     style="fill:#efce4a;stroke-width:0.27351427" />
</svg>
