<svg viewBox="0 0 32 32.000001" xmlns="http://www.w3.org/2000/svg"><g transform="translate(0 -1020.3622)"><path d="m11.398438 1033.1738a.50004997.50004997 0 0 0 -.132813.025c-.235147.073-.464858.1554-.689453.25-.8982832.3787-1.7069849.9277-2.3847658 1.6055-1.3555454 1.356-2.1914062 3.2339-2.1914062 5.307 0 4.1464 3.3536488 7.5 7.5 7.5h.25a.50004997.50004997 0 1 0 0-1h-.25c-3.6096484 0-6.5-2.8903-6.5-6.5 0-1.8048.7234829-3.4246 1.8984375-4.5996.5874692-.5874 1.2886255-1.0627 2.0664065-1.3906.194421-.082.393887-.1537.597656-.2168a.50004997.50004997 0 0 0 -.164062-.9805zm9.1875 0a.50004997.50004997 0 0 0 -.148438.9805c.203769.063.403235.1349.597656.2168.777781.3279 1.478937.8032 2.066406 1.3906 1.174955 1.175 1.898438 2.7948 1.898438 4.5996 0 3.6097-2.890351 6.5-6.5 6.5h-1.25a.50004997.50004997 0 1 0 0 1h1.25c4.146351 0 7.5-3.3536 7.5-7.5 0-2.0731-.835861-3.951-2.191406-5.3066-.677781-.6778-1.486483-1.2268-2.384766-1.6055-.224595-.095-.454306-.1771-.689453-.25a.50004997.50004997 0 0 0 -.148437-.025z"/><path d="m3.9765625 1037.8633a.50004991.50004991 0 0 0 -.2285156.9316l2.4882812 1.4922a.50025091.50025091 0 1 0 .515625-.8574l-2.4882812-1.4922a.50004991.50004991 0 0 0 -.2871094-.074z" fill-rule="evenodd"/><path d="m23.5 1044.8613a.50004994.50004994 0 0 0 -.347656.8594l2.488281 2.4902a.50004994.50004994 0 1 0 .707031-.707l-2.488281-2.4902a.50004994.50004994 0 0 0 -.359375-.1524z" fill-rule="evenodd"/><path d="m25.439453 1027.123-.878906.4786 1.240234 2.2714c.952179 1.7457.690612 3.899-.65039 5.3672l-.97461 1.0684.738281.6738.97461-1.0683c1.626417-1.7808 1.943899-4.4023.789062-6.5196z" fill-rule="evenodd"/><path d="m22.357422 1023.8613c-1.297946 0-2.357422 1.0625-2.357422 2.3614v.2793c0 1.2988 1.059476 2.3593 2.357422 2.3593h1.285156c1.297945 0 2.357422-1.0605 2.357422-2.3593v-.2793c0-1.2989-1.059477-2.3614-2.357422-2.3614zm0 1h1.285156c.760259 0 1.357422.5982 1.357422 1.3614v.2793c0 .7631-.597163 1.3593-1.357422 1.3593h-1.285156c-.760261 0-1.357422-.5962-1.357422-1.3593v-.2793c0-.7632.597161-1.3614 1.357422-1.3614z"/><path d="m6.5605469 1027.123-1.2382813 2.2715c-1.1548262 2.1173-.8373298 4.7388.7890625 6.5196l.9746094 1.0683.7382813-.6738-.9746094-1.0684c-1.340985-1.4682-1.6025623-3.6215-.6503906-5.3672l1.2402343-2.2714z" fill-rule="evenodd"/><path d="m8.484375 1044.8633a.50004994.50004994 0 0 0 -.34375.1504l-2.4882812 2.4902a.50004994.50004994 0 1 0 .7070312.707l2.4882812-2.4902a.50004994.50004994 0 0 0 -.3632812-.8574z" fill-rule="evenodd"/><path d="m19 1030.8613c-1.098647 0-2 .9014-2 2 0 1.0987.901353 2 2 2s2-.9013 2-2c0-1.0986-.901353-2-2-2zm0 1c.558207 0 1 .4418 1 1s-.441793 1-1 1-1-.4418-1-1 .441793-1 1-1z"/><path d="m13 1030.8613c-1.098647 0-2 .9014-2 2 0 1.0987.901353 2 2 2s2-.9013 2-2c0-1.0986-.901353-2-2-2zm0 1c.558207 0 1 .4418 1 1s-.441793 1-1 1-1-.4418-1-1 .441793-1 1-1z"/><path d="m8.3574219 1023.8613c-1.2979456 0-2.3574219 1.0625-2.3574219 2.3614v.2793c0 1.2988 1.0594763 2.3593 2.3574219 2.3593h1.2851562c1.2979459 0 2.3574219-1.0605 2.3574219-2.3593v-.2793c0-1.2989-1.059476-2.3614-2.3574219-2.3614zm0 1h1.2851562c.7602599 0 1.3574219.5982 1.3574219 1.3614v.2793c0 .7631-.597162 1.3593-1.3574219 1.3593h-1.2851562c-.7602605 0-1.3574219-.5962-1.3574219-1.3593v-.2793c0-.7632.5971614-1.3614 1.3574219-1.3614z"/><g fill-rule="evenodd"><path d="m20.5 1025.8613v1h1.5v-1z"/><path d="m10 1025.8613v1h1.5v-1z"/><path d="m14.5 1032.8613v1h3v-1z"/><path d="m28.007812 1037.8613a.50004991.50004991 0 0 0 -.271484.076l-2.488281 1.4922a.50025091.50025091 0 1 0 .515625.8574l2.488281-1.4922a.50004991.50004991 0 0 0 -.244141-.9336z"/></g></g></svg>