<svg height="200" width="400" xmlns="http://www.w3.org/2000/svg"><g fill="#c4af27" transform="scale(1.3638544 1.3605442)"><g transform="matrix(3.518988 0 0 3.518988 90.33771 -14.075952)"><path d="m11.398 13.312a.5.5 0 0 0 -.132.025 7.489 7.489 0 0 0 -5.266 7.163c0 4.146 3.354 7.5 7.5 7.5h5c4.146 0 7.5-3.354 7.5-7.5a7.48 7.48 0 0 0 -5.266-7.163.5000585.5000585 0 0 0 -.297.955 6.49 6.49 0 0 1 4.563 6.208c0 3.61-2.89 6.5-6.5 6.5h-5c-3.61 0-6.5-2.89-6.5-6.5 0-1.805.723-3.425 1.898-4.6a6.49 6.49 0 0 1 2.665-1.607.5.5 0 0 0 -.165-.98z" stroke-linecap="round" stroke-linejoin="round"/><path d="m3.977 18.001a.5.5 0 0 0 -.229.932l2.488 1.492a.50060463.50060463 0 1 0 .516-.858l-2.488-1.492a.5.5 0 0 0 -.287-.074zm19.523 6.999a.5.5 0 0 0 -.348.858l2.489 2.49a.5.5 0 1 0 .707-.706l-2.489-2.49a.5.5 0 0 0 -.359-.153z" fill-rule="evenodd" stroke-linecap="round" stroke-linejoin="round"/><path d="m25.44 7.26-.88.48 1.24 2.27a4.651 4.651 0 0 1 -.65 5.368l-.974 1.068.738.674.975-1.068a5.657 5.657 0 0 0 .789-6.52l-1.239-2.271z" fill-rule="evenodd"/><path d="m22.357 4a2.365 2.365 0 0 0 -2.357 2.36v.28c0 1.299 1.06 2.36 2.357 2.36h1.286a2.364 2.364 0 0 0 2.357-2.36v-.28a2.365 2.365 0 0 0 -2.357-2.36zm0 1h1.286c.76 0 1.357.596 1.357 1.36v.28c0 .763-.597 1.36-1.357 1.36h-1.286c-.76 0-1.357-.598-1.357-1.36v-.28c0-.763.597-1.36 1.357-1.36z" stroke-linecap="round" stroke-linejoin="round"/><path d="m6.56 7.26-1.237 2.273a5.657 5.657 0 0 0 .79 6.52l.974 1.068.738-.674-.974-1.068a4.651 4.651 0 0 1 -.65-5.367l1.24-2.272-.88-.478z" fill-rule="evenodd"/><path d="m8.484 25.001a.5.5 0 0 0 -.343.15l-2.489 2.49a.50027817.50027817 0 1 0 .707.708l2.489-2.49a.5.5 0 0 0 -.364-.859z" fill-rule="evenodd" stroke-linecap="round" stroke-linejoin="round"/><path d="m19 11c-1.099 0-2 .9-2 2 0 1.098.901 2 2 2s2-.902 2-2c0-1.1-.901-2-2-2zm0 1c.558 0 1 .44 1 1 0 .557-.442 1-1 1s-1-.443-1-1c0-.56.442-1 1-1zm-6-1c-1.099 0-2 .9-2 2 0 1.098.901 2 2 2s2-.902 2-2c0-1.1-.901-2-2-2zm0 1c.558 0 1 .44 1 1 0 .557-.442 1-1 1s-1-.443-1-1c0-.56.442-1 1-1zm-4.643-8a2.365 2.365 0 0 0 -2.357 2.36v.28c0 1.299 1.06 2.36 2.357 2.36h1.286a2.364 2.364 0 0 0 2.357-2.36v-.28a2.365 2.365 0 0 0 -2.357-2.36zm0 1h1.286c.76 0 1.357.596 1.357 1.36v.28c0 .763-.597 1.36-1.357 1.36h-1.286c-.76 0-1.357-.598-1.357-1.36v-.28c0-.763.597-1.36 1.357-1.36z" stroke-linecap="round" stroke-linejoin="round"/><path d="m20.5 6v1h1.5v-1zm-10.5 0v1h1.5v-1zm4.5 7v1h3v-1z" fill-rule="evenodd"/><g stroke-linecap="round" stroke-linejoin="round"><path d="m28.008 18a.5.5 0 0 0 -.272.075l-2.488 1.492a.50060463.50060463 0 1 0 .516.858l2.488-1.493a.5.5 0 0 0 -.244-.933z" fill-rule="evenodd"/><path d="m20 15.997a.5.5 0 0 0 -.193.963 4.497 4.497 0 0 1 2.748 4.156.5.5 0 1 0 1 0 5.499 5.499 0 0 0 -3.362-5.076.5.5 0 0 0 -.193-.043z"/></g></g><path d="m-175.98-2.1c2.82 1.72 6.17 2.58 10.05 2.58 5.92 0 10.72-1.9 14.4-5.7l-1.26-2.1c-2.08 1.92-4.15 3.29-6.21 4.11s-4.39 1.23-6.99 1.23c-5.12 0-9.09-1.68-11.91-5.04s-4.23-8.08-4.23-14.16c0-6.04 1.41-10.74 4.23-14.1s6.79-5.04 11.91-5.04c2.6 0 4.93.41 6.99 1.23s4.13 2.19 6.21 4.11l1.26-2.1c-3.68-3.8-8.48-5.7-14.4-5.7-3.88 0-7.23.86-10.05 2.58s-4.99 4.2-6.51 7.44-2.28 7.1-2.28 11.58.76 8.35 2.28 11.61 3.69 5.75 6.51 7.47zm65.01 2.1-7.68-14.52c-.72-1.28-1.47-2.3-2.25-3.06s-1.67-1.3-2.67-1.62c3.56-.4 6.31-1.58 8.25-3.54s2.91-4.58 2.91-7.86c0-3.84-1.19-6.75-3.57-8.73s-5.75-2.97-10.11-2.97h-16.32v42.3h2.46v-18.72h9.78c2.44 0 4.34.36 5.7 1.08s2.56 2.08 3.6 4.08l7.14 13.56zm-15.06-21.12h-13.86v-18.84h13.86c3.72 0 6.48.77 8.28 2.31s2.7 3.87 2.7 6.99c0 6.36-3.66 9.54-10.98 9.54zm56.4 21.12h2.64l-18.18-42.3h-2.4l-18.18 42.3h2.58l5.04-11.7h23.46zm-27.48-14.1 10.74-24.96 10.68 24.96zm65.85-3.99c-1.34-1.78-3.23-2.97-5.67-3.57 2.12-.8 3.77-2.01 4.95-3.63s1.77-3.59 1.77-5.91c0-3.6-1.16-6.35-3.48-8.25s-5.62-2.85-9.9-2.85h-15.6v42.3h16.26c4.4 0 7.78-.97 10.14-2.91s3.54-4.79 3.54-8.55c0-2.64-.67-4.85-2.01-6.63zm-25.41-4.59v-17.28h12.78c7.36 0 11.04 2.8 11.04 8.4 0 2.88-.94 5.08-2.82 6.6s-4.62 2.28-8.22 2.28zm22.05 18.18c-1.82 1.44-4.61 2.16-8.37 2.16h-13.68v-17.94h13.68c3.68 0 6.45.77 8.31 2.31s2.79 3.81 2.79 6.81-.91 5.22-2.73 6.66zm15.33 4.5h24.96v-2.28h-22.5v-40.02h-2.46zm36.51-2.13c2.78 1.74 6.05 2.61 9.81 2.61 3.8 0 7.09-.87 9.87-2.61s4.92-4.24 6.42-7.5 2.25-7.11 2.25-11.55-.74-8.28-2.22-11.52-3.62-5.73-6.42-7.47-6.1-2.61-9.9-2.61-7.09.87-9.87 2.61-4.91 4.24-6.39 7.5-2.22 7.11-2.22 11.55c0 4.4.75 8.23 2.25 11.49s3.64 5.76 6.42 7.5zm21.51-4.89c-2.76 3.36-6.66 5.04-11.7 5.04-5 0-8.88-1.68-11.64-5.04s-4.14-8.08-4.14-14.16 1.38-10.79 4.14-14.13 6.64-5.01 11.64-5.01c5.08 0 8.99 1.67 11.73 5.01s4.11 8.05 4.11 14.13-1.38 10.8-4.14 14.16zm48.54-14.28h-14.04v2.4h11.7v14.82c-1.6.68-3.44 1.21-5.52 1.59s-4.22.57-6.42.57c-5.36 0-9.49-1.66-12.39-4.98s-4.35-8.08-4.35-14.28c0-6.08 1.43-10.79 4.29-14.13s6.87-5.01 12.03-5.01c2.6 0 4.93.42 6.99 1.26s4.11 2.22 6.15 4.14l1.26-2.16c-3.64-3.8-8.38-5.7-14.22-5.7-3.96 0-7.37.85-10.23 2.55s-5.06 4.17-6.6 7.41-2.31 7.12-2.31 11.64.77 8.4 2.31 11.64 3.76 5.72 6.66 7.44c2.9 1.72 6.37 2.58 10.41 2.58 2.72 0 5.41-.27 8.07-.81s4.73-1.23 6.21-2.07zm9.54 17.1v4.2h4.14v-4.2zm45.66 4.2-7.68-14.52c-.72-1.28-1.47-2.3-2.25-3.06s-1.67-1.3-2.67-1.62c3.56-.4 6.31-1.58 8.25-3.54s2.91-4.58 2.91-7.86c0-3.84-1.19-6.75-3.57-8.73s-5.75-2.97-10.11-2.97h-16.32v42.3h2.46v-18.72h9.78c2.44 0 4.34.36 5.7 1.08s2.56 2.08 3.6 4.08l7.14 13.56zm-15.06-21.12h-13.86v-18.84h13.86c3.72 0 6.48.77 8.28 2.31s2.7 3.87 2.7 6.99c0 6.36-3.66 9.54-10.98 9.54zm27.99 17.43c2.7 2.78 6.69 4.17 11.97 4.17 5.24 0 9.22-1.39 11.94-4.17s4.08-6.89 4.08-12.33v-26.28h-2.52v26.7c0 4.52-1.14 7.92-3.42 10.2s-5.64 3.42-10.08 3.42c-9.04 0-13.56-4.54-13.56-13.62v-26.7h-2.46v26.28c0 5.44 1.35 9.55 4.05 12.33z" transform="matrix(.79662764 0 0 .79662764 147.19289 146.61762)"/></g></svg>